<svg width="102" height="92" viewBox="0 0 102 92" fill="none" xmlns="http://www.w3.org/2000/svg">
<path fill-rule="evenodd" clip-rule="evenodd" d="M65.3909 25.2734C60.611 14.0124 38.7518 24.5561 44.8279 53.0983C47.2074 56.5835 49.3079 60.4424 50.9994 64.8274C58.5478 45.3018 74.1281 36.1753 86.8853 24.4947C84.9772 23.9106 83.1167 23.2522 81.3013 22.5245C77.0068 27.5922 65.1335 35.1457 58.5686 30.6439C54.0574 27.5541 59.0019 19.9081 65.3909 25.2734Z" fill="url(#paint0_linear_172_202)"/>
<path fill-rule="evenodd" clip-rule="evenodd" d="M44.3251 15.221C45.1024 14.6751 46.0478 14.3454 47.1587 14.2252C44.8372 13.751 42.547 13.2085 40.7559 11.5845C41.2472 13.2708 42.3581 14.5375 44.3251 15.221Z" fill="url(#paint1_linear_172_202)"/>
<path fill-rule="evenodd" clip-rule="evenodd" d="M1.7842 40.299C4.07099 49.9982 13.1627 53.9844 21.4875 59.5469C28.2725 74.4107 39.5167 83.3615 50.9983 92C62.4833 83.3615 73.7284 74.4107 80.5125 59.5469C88.8347 53.9844 97.9255 49.9982 100.216 40.299C94.8892 44.2886 88.3832 45.6418 82.6615 48.8449C92.1345 42.0433 100.59 36.5396 102 23.8319C96.2271 31.2547 87.4543 34.9839 80.1546 40.5802C90.4257 31.6666 104.06 21.3833 101.357 6.07739C89.6623 30.1801 61.7537 36.999 50.9983 64.8274C40.2463 36.999 12.3377 30.1801 0.642969 6.07739C-2.05976 21.3833 11.5743 31.6666 21.8454 40.5802C14.5457 34.9839 5.77373 31.2547 0 23.8319C1.40985 36.5396 9.86551 42.0424 19.3385 48.8449C13.6167 45.6453 7.10733 44.2886 1.7842 40.299Z" fill="url(#paint2_radial_172_202)"/>
<path fill-rule="evenodd" clip-rule="evenodd" d="M50.9983 92V64.8274C40.2463 36.999 12.3377 30.1801 0.642968 6.07739C-2.05976 21.3833 11.5743 31.6666 21.8454 40.5802C14.5457 34.9839 5.77373 31.2547 0 23.8319C1.40985 36.5396 9.86551 42.0424 19.3385 48.8449C13.6167 45.6453 7.10733 44.2886 1.7842 40.299C4.07098 49.9982 13.1627 53.9844 21.4875 59.5469C28.2725 74.4107 39.5167 83.3615 50.9983 92Z" fill="url(#paint3_radial_172_202)"/>
<path fill-rule="evenodd" clip-rule="evenodd" d="M50.998 64.8274C63.9311 38.8255 98.9574 29.6852 101.357 6.07739C89.7106 30.0806 61.9294 36.5465 50.998 64.8274Z" fill="url(#paint4_radial_172_202)"/>
<path fill-rule="evenodd" clip-rule="evenodd" d="M102 23.8318C96.2171 31.2684 87.4373 34.9976 80.1549 40.5801C72.0052 47.6568 63.5911 55.2924 58.9863 65.4416C69.5667 46.5718 96.9528 39.8282 102 23.8318Z" fill="url(#paint5_radial_172_202)"/>
<path fill-rule="evenodd" clip-rule="evenodd" d="M100.216 40.2991C94.7934 44.3605 88.5145 45.5692 82.6619 48.845C77.129 52.8207 71.4827 57.1408 67.3086 63.6534C77.1836 52.9756 92.816 50.4378 100.216 40.2991Z" fill="url(#paint6_radial_172_202)"/>
<path fill-rule="evenodd" clip-rule="evenodd" d="M101.357 6.07739C98.9331 20.9749 83.273 30.1083 70.1719 42.527C84.3224 30.733 99.7884 21.4872 101.357 6.07739Z" fill="url(#paint7_radial_172_202)"/>
<path fill-rule="evenodd" clip-rule="evenodd" d="M101.999 23.8318C97.6668 34.5857 82.9183 41.0992 71.9766 51.1653C83.9781 41.6962 98.4648 35.0313 101.999 23.8318Z" fill="url(#paint8_radial_172_202)"/>
<path fill-rule="evenodd" clip-rule="evenodd" d="M100.216 40.2991C94.3979 47.0591 84.7421 50.3003 76.7578 56.189C85.3712 50.9328 94.91 47.5705 100.216 40.2991Z" fill="url(#paint9_radial_172_202)"/>
<path fill-rule="evenodd" clip-rule="evenodd" d="M51.0021 64.8274C38.0691 38.8255 3.04281 29.6852 0.643372 6.07739C12.2896 30.0806 40.0708 36.5465 51.0021 64.8274Z" fill="url(#paint10_radial_172_202)"/>
<path fill-rule="evenodd" clip-rule="evenodd" d="M0 23.8318C5.78326 31.2684 14.563 34.9976 21.8454 40.5801C29.9952 47.6568 38.4092 55.2924 43.014 65.4416C32.4336 46.5718 5.04757 39.8282 0 23.8318Z" fill="url(#paint11_radial_172_202)"/>
<path fill-rule="evenodd" clip-rule="evenodd" d="M1.78516 40.2991C7.20794 44.3605 13.4869 45.5692 19.3394 48.845C24.8723 52.8207 30.5186 57.1408 34.6927 63.6534C24.8177 52.9756 9.18538 50.4378 1.78516 40.2991Z" fill="url(#paint12_radial_172_202)"/>
<path fill-rule="evenodd" clip-rule="evenodd" d="M0.643372 6.07739C3.06707 20.9749 18.7271 30.1083 31.8283 42.527C17.6777 30.733 2.2118 21.4872 0.643372 6.07739Z" fill="url(#paint13_radial_172_202)"/>
<path fill-rule="evenodd" clip-rule="evenodd" d="M0 23.8318C4.33268 34.5857 19.0811 41.0992 30.0229 51.1653C18.0214 41.6962 3.5346 35.0313 0 23.8318Z" fill="url(#paint14_radial_172_202)"/>
<path fill-rule="evenodd" clip-rule="evenodd" d="M1.78516 40.2991C7.60308 47.0591 17.2589 50.3003 25.2432 56.189C16.6298 50.9328 7.09096 47.5705 1.78516 40.2991Z" fill="url(#paint15_radial_172_202)"/>
<path fill-rule="evenodd" clip-rule="evenodd" d="M50.9979 80.6215C40.5995 73.8882 30.2392 66.6402 22.9629 56.4253C28.8293 70.6782 38.9219 79.5979 50.9979 88.7616C63.0783 79.5979 73.17 70.6782 79.0373 56.4253C71.7602 66.6402 61.3999 73.8882 50.9979 80.6215Z" fill="url(#paint16_linear_172_202)"/>
<path fill-rule="evenodd" clip-rule="evenodd" d="M20.7 22.5237C24.9573 26.9597 31.549 31.4641 36.6824 28.9818C41.4111 26.695 40.0628 18.3109 44.3235 15.2211C42.3565 14.5376 41.2456 13.2709 40.7543 11.5846C46.5861 13.7719 56.2731 12.1098 58.2462 18.1456C64.584 18.6604 65.5363 21.7095 65.3882 25.2734C58.9992 19.9072 54.0547 27.5533 58.5659 30.643C65.1299 35.1448 77.0041 27.5905 81.2986 22.5237C69.4487 17.7788 59.494 10.0462 50.9967 0C42.5047 10.0462 32.5464 17.7788 20.7 22.5237Z" fill="url(#paint17_radial_172_202)"/>
<path fill-rule="evenodd" clip-rule="evenodd" d="M22.7388 24.4809C26.8817 28.1408 32.3115 31.093 36.6823 28.9818C41.411 26.695 40.0626 18.3109 44.3234 15.2212C43.0063 14.7644 42.0747 14.0471 41.4552 13.1161C35.7993 17.7719 29.5853 21.6101 22.7388 24.4809ZM42.618 12.141C48.4533 13.515 56.4688 12.7146 58.246 18.1465C64.5839 18.6614 65.5362 21.7104 65.388 25.2743C58.9991 19.9082 54.0546 27.5542 58.5658 30.6439C64.3083 34.5825 74.1088 29.2985 79.3488 24.519C68.3758 19.9358 59.0294 12.873 50.9966 3.93945C48.3528 6.88124 45.5608 9.62488 42.618 12.141Z" fill="url(#paint18_linear_172_202)"/>
<defs>
<linearGradient id="paint0_linear_172_202" x1="44.6932" y1="20.7363" x2="60.6983" y2="36.5747" gradientUnits="userSpaceOnUse">
<stop stop-color="#CF9102"/>
<stop offset="1" stop-color="#CF9102" stop-opacity="0"/>
</linearGradient>
<linearGradient id="paint1_linear_172_202" x1="50.6298" y1="18.8691" x2="40.266" y2="10.5656" gradientUnits="userSpaceOnUse">
<stop stop-color="#CF9102"/>
<stop offset="1" stop-color="#CF9102" stop-opacity="0"/>
</linearGradient>
<radialGradient id="paint2_radial_172_202" cx="0" cy="0" r="1" gradientUnits="userSpaceOnUse" gradientTransform="translate(51 49.0389) scale(47.1818 47.1107)">
<stop stop-color="white"/>
<stop offset="0.33" stop-color="#FDE966"/>
<stop offset="0.66" stop-color="#CF9102"/>
<stop offset="1" stop-color="#8C3C10"/>
</radialGradient>
<radialGradient id="paint3_radial_172_202" cx="0" cy="0" r="1" gradientUnits="userSpaceOnUse" gradientTransform="translate(25.499 49.0389) scale(35.3655 35.3122)">
<stop stop-color="white"/>
<stop offset="0.33" stop-color="#FDE966"/>
<stop offset="0.66" stop-color="#CF9102"/>
<stop offset="1" stop-color="#8C3C10"/>
</radialGradient>
<radialGradient id="paint4_radial_172_202" cx="0" cy="0" r="1" gradientUnits="userSpaceOnUse" gradientTransform="translate(128.871 34.2428) scale(97.3195 97.1729)">
<stop stop-color="white"/>
<stop offset="0.33" stop-color="#FDE966"/>
<stop offset="0.66" stop-color="#CF9102"/>
<stop offset="1" stop-color="#8C3C10"/>
</radialGradient>
<radialGradient id="paint5_radial_172_202" cx="0" cy="0" r="1" gradientUnits="userSpaceOnUse" gradientTransform="translate(120.284 38.4344) scale(66.7874 66.6868)">
<stop stop-color="white"/>
<stop offset="0.33" stop-color="#FDE966"/>
<stop offset="0.66" stop-color="#CF9102"/>
<stop offset="1" stop-color="#8C3C10"/>
</radialGradient>
<radialGradient id="paint6_radial_172_202" cx="0" cy="0" r="1" gradientUnits="userSpaceOnUse" gradientTransform="translate(117.994 43.9601) scale(51.9038 51.8256)">
<stop stop-color="white"/>
<stop offset="0.33" stop-color="#FDE966"/>
<stop offset="0.66" stop-color="#CF9102"/>
<stop offset="1" stop-color="#8C3C10"/>
</radialGradient>
<radialGradient id="paint7_radial_172_202" cx="0" cy="0" r="1" gradientUnits="userSpaceOnUse" gradientTransform="translate(85.7645 24.3025) scale(24.9777 24.9401)">
<stop stop-color="white"/>
<stop offset="0.33" stop-color="white"/>
<stop offset="0.66" stop-color="white" stop-opacity="0"/>
<stop offset="1" stop-color="white" stop-opacity="0"/>
</radialGradient>
<radialGradient id="paint8_radial_172_202" cx="0" cy="0" r="1" gradientUnits="userSpaceOnUse" gradientTransform="translate(86.9882 37.4986) scale(18.6028 18.5747)">
<stop stop-color="white"/>
<stop offset="0.33" stop-color="white"/>
<stop offset="0.66" stop-color="white" stop-opacity="0"/>
<stop offset="1" stop-color="white" stop-opacity="0"/>
</radialGradient>
<radialGradient id="paint9_radial_172_202" cx="0" cy="0" r="1" gradientUnits="userSpaceOnUse" gradientTransform="translate(88.4864 48.244) scale(11.5731 11.5557)">
<stop stop-color="white"/>
<stop offset="0.33" stop-color="white"/>
<stop offset="0.66" stop-color="white" stop-opacity="0"/>
<stop offset="1" stop-color="white" stop-opacity="0"/>
</radialGradient>
<radialGradient id="paint10_radial_172_202" cx="0" cy="0" r="1" gradientUnits="userSpaceOnUse" gradientTransform="translate(-26.8704 34.2428) rotate(180) scale(97.3195 97.1729)">
<stop stop-color="white"/>
<stop offset="0.33" stop-color="#FDE966"/>
<stop offset="0.66" stop-color="#CF9102"/>
<stop offset="1" stop-color="#8C3C10"/>
</radialGradient>
<radialGradient id="paint11_radial_172_202" cx="0" cy="0" r="1" gradientUnits="userSpaceOnUse" gradientTransform="translate(-18.2833 38.4344) rotate(180) scale(66.7874 66.6868)">
<stop stop-color="white"/>
<stop offset="0.33" stop-color="#FDE966"/>
<stop offset="0.66" stop-color="#CF9102"/>
<stop offset="1" stop-color="#8C3C10"/>
</radialGradient>
<radialGradient id="paint12_radial_172_202" cx="0" cy="0" r="1" gradientUnits="userSpaceOnUse" gradientTransform="translate(-15.993 43.9601) rotate(180) scale(51.9039 51.8257)">
<stop stop-color="white"/>
<stop offset="0.33" stop-color="#FDE966"/>
<stop offset="0.66" stop-color="#CF9102"/>
<stop offset="1" stop-color="#8C3C10"/>
</radialGradient>
<radialGradient id="paint13_radial_172_202" cx="0" cy="0" r="1" gradientUnits="userSpaceOnUse" gradientTransform="translate(16.2357 24.3025) rotate(180) scale(24.9777 24.9401)">
<stop stop-color="white"/>
<stop offset="0.33" stop-color="white"/>
<stop offset="0.66" stop-color="white" stop-opacity="0"/>
<stop offset="1" stop-color="white" stop-opacity="0"/>
</radialGradient>
<radialGradient id="paint14_radial_172_202" cx="0" cy="0" r="1" gradientUnits="userSpaceOnUse" gradientTransform="translate(15.0113 37.4986) rotate(180) scale(18.6028 18.5747)">
<stop stop-color="white"/>
<stop offset="0.33" stop-color="white"/>
<stop offset="0.66" stop-color="white" stop-opacity="0"/>
<stop offset="1" stop-color="white" stop-opacity="0"/>
</radialGradient>
<radialGradient id="paint15_radial_172_202" cx="0" cy="0" r="1" gradientUnits="userSpaceOnUse" gradientTransform="translate(13.5145 48.244) rotate(180) scale(11.5731 11.5557)">
<stop stop-color="white"/>
<stop offset="0.33" stop-color="white"/>
<stop offset="0.66" stop-color="white" stop-opacity="0"/>
<stop offset="1" stop-color="white" stop-opacity="0"/>
</radialGradient>
<linearGradient id="paint16_linear_172_202" x1="50.9997" y1="115.601" x2="50.9997" y2="67.9639" gradientUnits="userSpaceOnUse">
<stop stop-color="white"/>
<stop offset="1" stop-color="white" stop-opacity="0"/>
</linearGradient>
<radialGradient id="paint17_radial_172_202" cx="0" cy="0" r="1" gradientUnits="userSpaceOnUse" gradientTransform="translate(57.216 -16.9154) scale(61.0217 60.9297)">
<stop stop-color="white"/>
<stop offset="0.33" stop-color="#FDE966"/>
<stop offset="0.66" stop-color="#CF9102"/>
<stop offset="1" stop-color="#8C3C10"/>
</radialGradient>
<linearGradient id="paint18_linear_172_202" x1="51.0442" y1="-7.67457" x2="51.0442" y2="22.4594" gradientUnits="userSpaceOnUse">
<stop stop-color="white"/>
<stop offset="1" stop-color="white" stop-opacity="0"/>
</linearGradient>
</defs>
</svg>
